<svg xmlns="http://www.w3.org/2000/svg" viewBox="0 0 143.42 33.78"><defs><style>.cls-1{fill:#231f20;}</style></defs><title>logo</title><g id="Layer_2" data-name="Layer 2"><g id="Layer_1-2" data-name="Layer 1"><path class="cls-1" d="M22.43,39.59H18.37V36.46h-.19a7.52,7.52,0,0,1-3,2.76A8.55,8.55,0,0,1,11,40.33,8.36,8.36,0,0,1,4.64,38,9.52,9.52,0,0,1,2.4,31.19V17H6.65V30.92q.13,5.53,5.58,5.54a5.29,5.29,0,0,0,4.24-2.06,7.42,7.42,0,0,0,1.71-4.91V17h4.25Z" transform="translate(-2.4 -6.55)"/><path class="cls-1" d="M32.67,39.59H28.43V17h4.06v3.69h.18a6.18,6.18,0,0,1,2.65-3.07,7.42,7.42,0,0,1,4-1.26,8,8,0,0,1,3.14.55L41.12,21a7,7,0,0,0-2.5-.33,5.48,5.48,0,0,0-4.17,1.94,6.46,6.46,0,0,0-1.78,4.52Z" transform="translate(-2.4 -6.55)"/><path class="cls-1" d="M58.19,40.33a9.75,9.75,0,0,1-4.55-1.06,8,8,0,0,1-3.16-2.81H50.3v3.13H46.24v-33h4.24V17l-.18,3.14h.18a8,8,0,0,1,3.16-2.82,9.87,9.87,0,0,1,4.55-1.06,9.72,9.72,0,0,1,7.57,3.51,12.36,12.36,0,0,1,3.18,8.54,12.23,12.23,0,0,1-3.18,8.53A9.72,9.72,0,0,1,58.19,40.33Zm-.69-3.87a6.62,6.62,0,0,0,5.12-2.31,8.35,8.35,0,0,0,2.08-5.86,8.45,8.45,0,0,0-2.08-5.86,6.88,6.88,0,0,0-10.29,0,8.51,8.51,0,0,0-2,5.86,8.55,8.55,0,0,0,2,5.9A6.73,6.73,0,0,0,57.5,36.46Z" transform="translate(-2.4 -6.55)"/><path class="cls-1" d="M82.23,16.24a10.52,10.52,0,0,1,7.43,2.52,8.91,8.91,0,0,1,2.72,6.9V39.59H88.32V36.46h-.18a8.11,8.11,0,0,1-7,3.87,9.15,9.15,0,0,1-6.25-2.21,7.08,7.08,0,0,1-2.51-5.54A6.7,6.7,0,0,1,75,27a11.15,11.15,0,0,1,7.08-2.08,12.57,12.57,0,0,1,6.23,1.38v-1a4.83,4.83,0,0,0-1.75-3.76A6,6,0,0,0,82.46,20a6.51,6.51,0,0,0-5.63,3l-3.74-2.36Q76.18,16.24,82.23,16.24ZM76.74,32.67a3.39,3.39,0,0,0,1.41,2.77,5.14,5.14,0,0,0,3.3,1.11,6.74,6.74,0,0,0,4.77-2,6.2,6.2,0,0,0,2.1-4.66,8.76,8.76,0,0,0-5.54-1.57,7.18,7.18,0,0,0-4.31,1.25A3.71,3.71,0,0,0,76.74,32.67Z" transform="translate(-2.4 -6.55)"/><path class="cls-1" d="M98,17h4.06v3.14h.19a7.54,7.54,0,0,1,3-2.77,8.52,8.52,0,0,1,4.18-1.11,8.37,8.37,0,0,1,6.39,2.38c1.49,1.58,2.24,3.84,2.24,6.76V39.59h-4.25V25.66q-.14-5.53-5.58-5.54A5.28,5.28,0,0,0,104,22.17a7.44,7.44,0,0,0-1.71,4.92v12.5H98Z" transform="translate(-2.4 -6.55)"/><path class="cls-1" d="M122.56,28.29a11.94,11.94,0,0,1,3.28-8.63,11.15,11.15,0,0,1,8.35-3.42,11,11,0,0,1,8.31,3.42,11.89,11.89,0,0,1,3.32,8.63,11.81,11.81,0,0,1-3.32,8.63,11.06,11.06,0,0,1-8.31,3.41,11.18,11.18,0,0,1-8.35-3.41A12,12,0,0,1,122.56,28.29Zm4.25,0a8.23,8.23,0,0,0,2.12,5.9,7.23,7.23,0,0,0,10.52,0,8.23,8.23,0,0,0,2.12-5.9,8.18,8.18,0,0,0-2.12-5.86,7.14,7.14,0,0,0-10.52,0A8.18,8.18,0,0,0,126.81,28.29Z" transform="translate(-2.4 -6.55)"/></g></g></svg>