<?xml version="1.0" encoding="utf-8"?>
<!-- Generator: Adobe Illustrator 22.1.0, SVG Export Plug-In . SVG Version: 6.00 Build 0)  -->
<svg version="1.1" id="Layer_1" xmlns="http://www.w3.org/2000/svg" xmlns:xlink="http://www.w3.org/1999/xlink" x="0px" y="0px"
	 viewBox="0 0 118.2 23.1" style="enable-background:new 0 0 118.2 23.1;" xml:space="preserve">
<title>Logo_White</title>
<path d="M15.8,4.7H4.4v4.6h10.5v3.8H4.4v5.5h12v3.9H0V0.9h15.8V4.7z"/>
<path d="M23.1,15.8c0.1,0.8,0.4,1.5,0.9,2.2c0.7,0.9,2,1.3,3.8,1.3c0.9,0,1.8-0.1,2.6-0.3c1.2-0.3,2-1.3,1.9-2.5
	c0-0.7-0.3-1.3-0.9-1.7c-0.9-0.5-2-0.8-3-1l-2.3-0.5c-1.7-0.3-3.3-0.8-4.7-1.7C19.9,10.6,19,8.8,19.2,7c0-1.8,0.8-3.6,2.1-4.8
	c1.4-1.3,3.5-1.9,6.3-1.9c2.1-0.1,4.2,0.6,5.9,1.8C35.1,3.3,36,5.3,36,7.3h-4.3c0-1.2-0.7-2.2-1.7-2.8C29.1,4.2,28.2,4,27.3,4
	c-1,0-2,0.2-2.9,0.7c-0.7,0.4-1.1,1.2-1.1,2c0,0.7,0.4,1.4,1,1.7c0.9,0.4,1.9,0.7,2.9,0.9l3.8,0.9c1.3,0.3,2.6,0.8,3.7,1.6
	c1.3,1.1,2,2.7,1.9,4.4c0,1.9-0.8,3.7-2.3,4.9c-1.8,1.4-4.1,2.1-6.5,2c-2.4,0.1-4.8-0.5-6.7-1.9c-1.6-1.3-2.5-3.2-2.4-5.3L23.1,15.8
	z"/>
<path d="M103.8,12.5c-0.5-0.3-1.1-0.4-1.6-0.5c-0.7-0.1-1.4-0.1-2.1-0.1h-4.4v7h4.2c0.8,0,1.6,0,2.4-0.1c0.6-0.1,1.2-0.2,1.7-0.5
	c0.4-0.2,0.8-0.6,1-1.1c0.2-0.6,0.4-1.2,0.3-1.9c0-0.6-0.1-1.2-0.4-1.8C104.6,13.1,104.2,12.7,103.8,12.5z"/>
<polygon points="75.4,13.3 82.3,13.3 78.9,4.1 "/>
<path d="M102,10.2c0.5-0.1,1-0.3,1.4-0.6c0.3-0.3,0.6-0.6,0.8-1.1c0.2-0.5,0.2-0.9,0.2-1.4c0-0.5-0.1-1-0.3-1.4
	c-0.2-0.4-0.5-0.7-0.9-0.9c-0.5-0.3-1-0.4-1.5-0.5c-0.8-0.1-1.5-0.2-2.3-0.2h-3.9v6.4h4.2C100.5,10.5,101.3,10.4,102,10.2z"/>
<path d="M40.8,0v22.5h77.3V0H40.8z M65.3,20.3H54.2V2.7h1.7v16.2h9.5V20.3z M84.9,20.3l-2-5.5h-8l-2.2,5.5h-1.7L78,2.7h1.9l6.8,17.6
	H84.9z M106.5,17.6c-0.3,0.6-0.7,1.1-1.2,1.5c-0.5,0.4-1.2,0.7-1.8,0.9c-0.8,0.2-1.5,0.3-2.3,0.3h-7.2V2.7h6.4
	c0.9,0,1.8,0.1,2.7,0.3c0.7,0.2,1.3,0.5,1.8,0.9c0.4,0.4,0.8,0.9,1,1.4c0.2,0.6,0.3,1.2,0.3,1.8c0,0.5-0.1,1.1-0.2,1.6
	c-0.1,0.4-0.4,0.8-0.6,1.1c-0.2,0.3-0.6,0.5-0.9,0.7c-0.3,0.2-0.7,0.3-1,0.4l0,0c1.1,0.1,2,0.6,2.7,1.5c0.6,0.9,0.9,1.9,0.9,2.9
	C106.9,16.1,106.8,16.9,106.5,17.6z"/>
</svg>
