<svg id="Layer_1" data-name="Layer 1" xmlns="http://www.w3.org/2000/svg" viewBox="0 0 233.74 54"><defs><style>.cls-1{fill:#aa1a2f;}.cls-2{fill:#231f20;}.cls-3{fill:#55565a;}</style></defs><title>Artboard 1</title><path class="cls-1" d="M11.76,7.92c-.17-1.69-1.07-3.26-2.86-3.26-2.09,0-3.13,1.76-3.13,5.82,0,4.21.95,6.22,3.63,6.22,1.94,0,3.16-1.74,3.53-3.51l4,.87c-1.27,4.45-4,6.37-8.61,6.37C4.73,20.43.1,17.6.1,10.83s4.48-9.9,9-9.9a7.29,7.29,0,0,1,7.66,6.62Z"/><path class="cls-1" d="M26.59,13.47c0-3.09-.82-3.93-2.19-3.93s-2.19.84-2.19,3.93S23,17.4,24.4,17.4s2.19-.85,2.19-3.93m-2.19,7c-4.15,0-7.06-2.56-7.06-7a6.65,6.65,0,0,1,7.06-7,6.7,6.7,0,0,1,7.06,7c0,4.2-2.84,7-7.06,7"/><path class="cls-1" d="M32.12,6.85h4.67V8.91h.05A6,6,0,0,1,41.52,6.5v4.9A6.09,6.09,0,0,0,39,10.73a3.25,3.25,0,0,0-2.19.89v8.46H32.12Z"/><path class="cls-1" d="M42.24,6.85h4.68V8.74a6.38,6.38,0,0,1,4.3-2.24,3.71,3.71,0,0,1,3.81,4v9.58H50.35V11.7c0-.95-.22-1.92-1.42-1.92a3.41,3.41,0,0,0-2,1.2v9.1H42.24Z"/><path class="cls-1" d="M64.92,11.8c0-1.39-.6-2.56-1.94-2.56-1.59,0-2.16,1.12-2.19,2.56Zm-4.3,2.54A2.92,2.92,0,0,0,63.7,17.4a3.47,3.47,0,0,0,3-1.94l3.08,1.39a7.85,7.85,0,0,1-7,3.58c-4.15,0-7.06-2.56-7.06-7a6.65,6.65,0,0,1,7.06-7c3.93,0,7,2.29,7,7.46v.37Z"/><rect class="cls-1" x="70.52" y="1.28" width="4.68" height="18.8"/><rect class="cls-1" x="77.06" y="1.28" width="4.68" height="18.8"/><polygon class="cls-2" points="83.69 1.28 97.84 1.28 97.84 5.16 89.06 5.16 89.06 8.56 94.69 8.56 94.69 12.45 89.06 12.45 89.06 16.05 98.12 16.05 98.12 20.08 83.69 20.08 83.69 1.28"/><path class="cls-2" d="M99.31,6.85H104V8.74a6.37,6.37,0,0,1,4.3-2.24,3.7,3.7,0,0,1,3.8,4v9.58h-4.68V11.7c0-.95-.22-1.92-1.42-1.92a3.41,3.41,0,0,0-2,1.2v9.1H99.31Z"/><path class="cls-2" d="M117.69,10.65a2,2,0,1,0,3.91,0,1.87,1.87,0,0,0-1.87-1.89,2,2,0,0,0-2,1.91m1.07,9.08c-1.64,0-2.61.12-2.61,1,0,.65.5,1.12,3.58,1.12,1.59,0,3.73-.17,3.73-1,0-1-2.39-1.12-4.7-1.12m8.88-10.4c-.55-.32-1.79-.79-2.24-.07a2.21,2.21,0,0,1,.37,1.2c0,2.63-2.06,4.28-5.79,4.28h-1.12c-1.12,0-1.22.27-1.22.6,0,.5.28.55,1.17.62l2.51.17c2.81.2,6.17.77,6.17,3.85,0,1.92-2.06,4.28-8,4.28-3.83,0-6.77-.67-6.77-2.56,0-1.34,1.32-2,2.39-2.29v0a2.32,2.32,0,0,1-1.87-2.14c0-1.57,1.77-2.54,3-2.94v-.05a3.87,3.87,0,0,1-2.76-3.61c0-1.82,1.82-4.13,5.8-4.13a8,8,0,0,1,5,1.34,4.18,4.18,0,0,1,3.31-1.34Z"/><path class="cls-2" d="M128.21,6.85h4.68V20.08h-4.68Zm0-5.57h4.68V5h-4.68Z"/><path class="cls-2" d="M134.51,6.85h4.68V8.74a6.37,6.37,0,0,1,4.3-2.24,3.71,3.71,0,0,1,3.81,4v9.58h-4.68V11.7c0-.95-.22-1.92-1.42-1.92a3.4,3.4,0,0,0-2,1.2v9.1h-4.68Z"/><path class="cls-2" d="M157.49,11.8c0-1.39-.6-2.56-1.94-2.56-1.59,0-2.17,1.12-2.19,2.56Zm-4.3,2.54a2.92,2.92,0,0,0,3.08,3.06,3.47,3.47,0,0,0,3-1.94l3.08,1.39a7.85,7.85,0,0,1-7,3.58c-4.15,0-7.06-2.56-7.06-7a6.65,6.65,0,0,1,7.06-7c3.93,0,7,2.29,7,7.46v.37Z"/><path class="cls-2" d="M172,11.8c.05-1.39-.6-2.56-1.94-2.56-1.59,0-2.16,1.12-2.19,2.56Zm-4.3,2.54a2.92,2.92,0,0,0,3.09,3.06,3.47,3.47,0,0,0,3-1.94l3.08,1.39a7.84,7.84,0,0,1-7,3.58c-4.15,0-7.06-2.56-7.06-7a6.65,6.65,0,0,1,7.06-7c3.93,0,7,2.29,7,7.46v.37Z"/><path class="cls-2" d="M177.86,6.85h4.68V8.91h0a6,6,0,0,1,4.68-2.41v4.9a6.07,6.07,0,0,0-2.54-.67,3.24,3.24,0,0,0-2.19.89v8.46h-4.68Z"/><path class="cls-2" d="M188.4,6.85h4.68V20.08H188.4Zm0-5.57h4.68V5H188.4Z"/><path class="cls-2" d="M194.7,6.85h4.68V8.74a6.38,6.38,0,0,1,4.3-2.24,3.71,3.71,0,0,1,3.81,4v9.58h-4.68V11.7c0-.95-.23-1.92-1.42-1.92a3.42,3.42,0,0,0-2,1.2v9.1H194.7Z"/><path class="cls-2" d="M213.08,10.65a2,2,0,1,0,3.9,0,1.87,1.87,0,0,0-1.87-1.89,2,2,0,0,0-2,1.91m1.07,9.08c-1.64,0-2.61.12-2.61,1,0,.65.5,1.12,3.58,1.12,1.59,0,3.73-.17,3.73-1,0-1-2.39-1.12-4.7-1.12M223,9.34c-.55-.32-1.79-.79-2.24-.07a2.22,2.22,0,0,1,.38,1.2c0,2.63-2.06,4.28-5.79,4.28h-1.12c-1.12,0-1.22.27-1.22.6,0,.5.28.55,1.17.62l2.51.17c2.81.2,6.17.77,6.17,3.85,0,1.92-2.06,4.28-8,4.28-3.83,0-6.77-.67-6.77-2.56,0-1.34,1.32-2,2.39-2.29v0a2.33,2.33,0,0,1-1.87-2.14c0-1.57,1.77-2.54,3-2.94v-.05a3.87,3.87,0,0,1-2.76-3.61c0-1.82,1.82-4.13,5.8-4.13a8,8,0,0,1,5,1.34A4.18,4.18,0,0,1,223,6.5Z"/><path class="cls-3" d="M1.85,42.84l.08.08A9.4,9.4,0,0,0,2,44.61C2,45,3.24,46.43,6.07,46.43s4.55-1.47,4.55-3.87C10.62,37.48.68,42,.68,35c0-3.46,2.5-5.64,6.75-5.64a11.44,11.44,0,0,1,4.78,1l.08.18A17.25,17.25,0,0,0,11.86,34l-.08.08L11,34,10.9,34c0-1.52,0-1.8-.15-2a5,5,0,0,0-3.56-1.26c-2.73,0-4,1.54-4,3.34,0,2.28,1.21,2.68,5.36,3.31,2.93.43,4.58,1.49,4.58,4.12S11,47.74,5.46,47.74a10.87,10.87,0,0,1-4.7-1.06l-.08-.15A25.11,25.11,0,0,0,1,42.91L1,42.84Z"/><path class="cls-3" d="M22.6,35.78l.08-.08c.71.05,1.47.13,2.25.13s1.59-.08,2.33-.13l.08.08v.73l-.08.08a1.43,1.43,0,0,0-1.47,1c-1,2-3.26,7-4.9,11-2,4.88-2.91,5.81-4.65,5.81A4.81,4.81,0,0,1,14.54,54a15.09,15.09,0,0,0,.51-2l.35-.15c.51.58.81.73,1.29.73,1.16,0,2-1.24,3.31-4.73L15.35,37.22c-.15-.38-.35-.53-1.34-.63l-.08-.08v-.73l.08-.08c.94.05,1.95.13,3,.13s1.92-.08,2.81-.13l.08.08v.73l-.08.08c-1.09.13-1.52.18-1.52.68,0,.23.13.53,3.08,7.48,2.78-6.67,3-7.23,3-7.64s-.33-.53-1.62-.53l-.08-.08Z"/><path class="cls-3" d="M28,47a26.66,26.66,0,0,0,.25-3.26l.08-.08h.81l.08.08a4.4,4.4,0,0,0,.23,1.95,4.87,4.87,0,0,0,3,1.14A2.32,2.32,0,0,0,35,44.4c0-3.19-7-.4-7-5.26,0-1.82,1.49-3.77,4.65-3.77a12.79,12.79,0,0,1,3.54.58l.2.3a13.07,13.07,0,0,0-.15,2.6l-.08.08h-.81l-.08-.08a4.51,4.51,0,0,0-.2-1.54,4,4,0,0,0-2.7-1,1.94,1.94,0,0,0-2.17,1.95c0,1.29.78,1.54,3.46,2,2.25.4,3.49,1.26,3.49,3.14,0,2.76-2.45,4.3-5.33,4.3a15.9,15.9,0,0,1-3.79-.56Z"/><path class="cls-3" d="M38,37.3l.08-.1q.87-.38,1.9-.91c0-1.29,0-2.6-.08-3.89a10.1,10.1,0,0,0,2.53-1.21l.35.3a28.42,28.42,0,0,0-.28,4.85,28.93,28.93,0,0,0,3.21-.1l.13.13-.2,1.34-.1.08-1.47,0-1.59,0c0,2,0,3.72,0,6,0,1.69.63,2.17,1.74,2.17a2.8,2.8,0,0,0,1.44-.38l.25.35a14.63,14.63,0,0,0-1.52,1.62,6.73,6.73,0,0,1-1.57.23c-1.87,0-3-.86-3-3.16,0-2.71.15-5,.15-6.85-.33,0-1.14.08-1.9.13L38,37.78Z"/><path class="cls-3" d="M57.34,45.34a13.43,13.43,0,0,0-.56,1.24,8.11,8.11,0,0,1-4.22,1.16c-3.59,0-5.79-2.38-5.79-5.89,0-2.45.58-3.92,1.64-4.65,1.77-1.21,3.06-1.82,4.27-1.82,4.88,0,4.88,3.84,4.88,5.46l-.08.13a13.37,13.37,0,0,1-4.17.46H49.55c.13,2.71,1.39,4.8,4.42,4.8A5.7,5.7,0,0,0,57,45.11Zm-7.86-5c1.31.08,2.28.1,3.24.1a16.47,16.47,0,0,0,2.22-.1c0-2.1-.51-4-2.68-4C49.83,36.34,49.47,39.22,49.47,40.36Z"/><path class="cls-3" d="M65.58,35.68a4.46,4.46,0,0,1,1.82-.3,3.37,3.37,0,0,1,3.49,2.5l2.48-2.33a5.34,5.34,0,0,1,1.49-.18c2.83,0,4,1.77,4,4,0,1.44-.08,3.72-.08,6.12,0,.91.2,1,1.57,1l.13.13v.63l-.13.13c-.68,0-1.34-.13-2-.13s-1.34.08-2,.13L76,47.19a43.06,43.06,0,0,0,.23-5.56c0-2.5,0-4.27-2.48-4.27-1.19,0-2.68.94-2.68,1.9v3.87c0,2.07,0,2.93.2,3.16s.68.25,1.64.25l.08.08v.73l-.08.08c-1,0-2-.13-3.19-.13-1,0-2.07.08-3,.13l-.08-.08V46.6l.08-.08c1,0,1.52-.1,1.64-.25s.2-1.09.2-3.16V39.83c0-1.52-.73-2.48-2.25-2.48-1.34,0-2.91.83-2.91,1.9v3.87c0,2.07,0,2.93.2,3.16s.68.25,1.64.25l.08.08v.73l-.08.08c-1,0-2-.13-3.19-.13-1,0-2.07.08-3,.13l-.08-.08V46.6l.08-.08c1,0,1.52-.1,1.64-.25s.2-1.09.2-3.16v-3c0-2.2,0-2.6-.25-2.73A8.39,8.39,0,0,0,59,37.3l-.08-.08v-.73l.08-.08a14.09,14.09,0,0,0,4.15-1l.25.18c-.05.58-.1,1.29-.1,2.15Z"/><path class="cls-3" d="M81.63,47a26.64,26.64,0,0,0,.25-3.26l.08-.08h.81l.08.08a4.4,4.4,0,0,0,.23,1.95,4.87,4.87,0,0,0,3,1.14,2.32,2.32,0,0,0,2.6-2.38c0-3.19-7-.4-7-5.26,0-1.82,1.49-3.77,4.65-3.77a12.79,12.79,0,0,1,3.54.58l.2.3a13.08,13.08,0,0,0-.15,2.6l-.08.08h-.81L89,38.87a4.51,4.51,0,0,0-.2-1.54,4,4,0,0,0-2.71-1,1.94,1.94,0,0,0-2.17,1.95c0,1.29.78,1.54,3.46,2,2.25.4,3.49,1.26,3.49,3.14,0,2.76-2.45,4.3-5.33,4.3a15.9,15.9,0,0,1-3.79-.56Z"/><path class="cls-3" d="M97.86,29.82l.08-.08c1.26.05,2.48.13,3.69.13,4.68,0,7.89-.08,9.53-.13l.15.13c-.13,1.32-.23,2.66-.3,3.89l-.08.08h-.73l-.08-.08a7,7,0,0,0-.23-2.3,15,15,0,0,0-4.3-.4c-1,0-1.95.08-2.45.1-.13,2.22-.13,4.4-.13,6.57,1,0,2,.05,3,.05,1.39,0,2.25-.08,2.4-.35a4.75,4.75,0,0,0,.33-1.75l.08-.08h.66l.08.08c0,1-.05,2-.05,3,0,.68.05,1.69.05,2.58l-.08.08h-.66l-.08-.08a7.21,7.21,0,0,0-.35-1.82c-.13-.33-1-.46-3.11-.46-.86,0-1.52,0-2.23.05,0,2.35,0,4.73.05,7.05,1.34,0,6.55,0,7.1-.33a7.06,7.06,0,0,0,.66-2.6l.08-.08h.81l.08.08c-.1,1.06-.23,2.73-.28,4.12l-.2.13c-3.36-.1-7.18-.13-10.16-.13a18.6,18.6,0,0,0-2.17.13l-.08-.08v-.48l.1-.13c.83-.38,1-.5,1.06-.66s.18-.51.18-8.77c0-5.87-.08-6.09-.35-6.35a3.84,3.84,0,0,0-1.95-.33l-.08-.08Z"/><path class="cls-3" d="M120,35.68a4.46,4.46,0,0,1,1.82-.3c2.78,0,3.92,1.77,3.92,4,0,1.44-.08,3.72-.08,6.12,0,.91.2,1,1.57,1l.13.13v.63l-.13.13c-.68,0-1.34-.13-2-.13s-1.34.08-2,.13l-.28-.23a43,43,0,0,0,.23-5.56c0-2.5,0-4.27-2.4-4.27-1.37,0-2.93.83-2.93,1.9v3.87c0,2.07,0,2.93.2,3.16s.68.25,1.64.25l.08.08v.73l-.08.08c-1,0-2-.13-3.19-.13-1,0-2.07.08-3,.13l-.08-.08V46.6l.08-.08c1,0,1.52-.1,1.64-.25s.2-1.09.2-3.16v-3c0-2.2,0-2.6-.25-2.73a8.39,8.39,0,0,0-1.59-.1l-.08-.08v-.73l.08-.08a14.1,14.1,0,0,0,4.15-1l.25.18c-.05.58-.1,1.29-.1,2.15Z"/><path class="cls-3" d="M141.49,36.49c-.25.4-.51.81-.73,1.21-.3,0-.66,0-1,0s-.76,0-1.06,0A5,5,0,0,1,139,39.4c0,2.73-3.06,4.35-5.23,4.35l-.81,0c-.86.71-1,1-1,1.29,0,.53.3.63,2,.63,1,0,2-.08,3.19-.08,2.2,0,3.62,1.16,3.62,3.14,0,3.09-3.06,5.34-7,5.34-4.22,0-5.34-2.3-5.34-3.59a2.76,2.76,0,0,1,.73-1.85c.66-.33,1.26-.68,1.85-1-.94-.3-1.29-.73-1.29-1.47a1.88,1.88,0,0,1,.38-1.19c.63-.46,1.24-.91,1.79-1.39a3.39,3.39,0,0,1-2.91-3.31,4.09,4.09,0,0,1,1.67-3.49,7.49,7.49,0,0,1,4-1.34,4.65,4.65,0,0,1,3.11,1c1.42,0,2.55,0,3.49-.1Zm-6.17,11a18.35,18.35,0,0,0-3,.18c-1.19.71-1.62,1.34-1.62,2.4,0,2,1.57,3,3.36,3,2.66,0,4.5-1.29,4.5-3.44C138.59,48.3,137.62,47.54,135.32,47.54Zm-1.39-11.1a2.36,2.36,0,0,0-2.43,2.5c0,2.81,1.42,3.84,2.43,3.84a2.33,2.33,0,0,0,2.58-2.53C136.51,38,135.4,36.44,133.93,36.44Z"/><path class="cls-3" d="M141.62,36.49l.08-.08a14.09,14.09,0,0,0,4.15-1l.35.23c-.1.93-.13,2.48-.13,3.44v4.07c0,2.07,0,2.93.2,3.16s.68.25,1.64.25l.08.08v.73l-.08.08c-1,0-2-.13-3.19-.13-1,0-2.07.08-3,.13l-.08-.08V46.6l.08-.08c1,0,1.52-.1,1.64-.25s.2-1.09.2-3.16v-3c0-2.2,0-2.6-.25-2.73a8.39,8.39,0,0,0-1.59-.1l-.08-.08Zm3.08-6.78a1.62,1.62,0,1,1-1.62,1.62A1.63,1.63,0,0,1,144.7,29.71Z"/><path class="cls-3" d="M155.4,35.68a4.46,4.46,0,0,1,1.82-.3c2.78,0,3.92,1.77,3.92,4,0,1.44-.08,3.72-.08,6.12,0,.91.2,1,1.57,1l.13.13v.63l-.13.13c-.68,0-1.34-.13-2-.13s-1.34.08-2,.13l-.28-.23a42.86,42.86,0,0,0,.23-5.56c0-2.5,0-4.27-2.4-4.27-1.37,0-2.93.83-2.93,1.9v3.87c0,2.07,0,2.93.2,3.16s.68.25,1.64.25l.08.08v.73l-.08.08c-1,0-2-.13-3.19-.13-1,0-2.07.08-3,.13l-.08-.08V46.6l.08-.08c1,0,1.52-.1,1.64-.25s.2-1.09.2-3.16v-3c0-2.2,0-2.6-.25-2.73a8.38,8.38,0,0,0-1.59-.1l-.08-.08v-.73l.08-.08a14.1,14.1,0,0,0,4.15-1l.25.18c0,.58-.1,1.29-.1,2.15Z"/><path class="cls-3" d="M174.68,45.34a13.39,13.39,0,0,0-.56,1.24,8.11,8.11,0,0,1-4.22,1.16c-3.59,0-5.79-2.38-5.79-5.89,0-2.45.58-3.92,1.64-4.65,1.77-1.21,3.06-1.82,4.27-1.82,4.88,0,4.88,3.84,4.88,5.46l-.08.13a13.37,13.37,0,0,1-4.17.46H166.9c.13,2.71,1.39,4.8,4.42,4.8a5.7,5.7,0,0,0,3.06-1.11Zm-7.86-5c1.31.08,2.28.1,3.24.1a16.48,16.48,0,0,0,2.22-.1c0-2.1-.51-4-2.68-4C167.18,36.34,166.82,39.22,166.82,40.36Z"/><path class="cls-3" d="M187.3,45.34a13.4,13.4,0,0,0-.56,1.24,8.11,8.11,0,0,1-4.22,1.16c-3.59,0-5.79-2.38-5.79-5.89,0-2.45.58-3.92,1.64-4.65,1.77-1.21,3.06-1.82,4.27-1.82,4.88,0,4.88,3.84,4.88,5.46l-.08.13a13.37,13.37,0,0,1-4.17.46h-3.77c.13,2.71,1.39,4.8,4.43,4.8A5.7,5.7,0,0,0,187,45.11Zm-7.86-5c1.31.08,2.28.1,3.24.1a16.48,16.48,0,0,0,2.22-.1c0-2.1-.5-4-2.68-4C179.79,36.34,179.44,39.22,179.44,40.36Z"/><path class="cls-3" d="M188.74,36.49l.08-.08a13,13,0,0,0,4.22-1l.35.23c-.08.76-.15,1.92-.15,2.53a11.49,11.49,0,0,0,.94-1c.88-1.06,1.62-1.72,2.86-1.72a3.41,3.41,0,0,1,1.11.18l.13.15a18.82,18.82,0,0,0-.28,3.19h-.46c-.3-.71-.63-1-1.77-1a2.29,2.29,0,0,0-2.43,2.45v2.81c0,2.07,0,2.93.2,3.16a4.45,4.45,0,0,0,2.1.25l.08.08v.73l-.08.08c-1.11,0-2.3-.13-3.64-.13-1,0-2.07.08-3.19.13l-.08-.08V46.6l.08-.08c1.11,0,1.67-.1,1.79-.25s.2-1.09.2-3.16v-3c0-2.2,0-2.6-.25-2.73a9.21,9.21,0,0,0-1.74-.1l-.08-.08Z"/><path class="cls-3" d="M198.52,36.49l.08-.08a14.09,14.09,0,0,0,4.15-1l.35.23c-.1.93-.13,2.48-.13,3.44v4.07c0,2.07,0,2.93.2,3.16s.68.25,1.64.25l.08.08v.73l-.08.08c-1,0-2-.13-3.19-.13-1,0-2.07.08-3,.13l-.08-.08V46.6l.08-.08c1,0,1.52-.1,1.64-.25s.2-1.09.2-3.16v-3c0-2.2,0-2.6-.25-2.73a8.4,8.4,0,0,0-1.59-.1l-.08-.08Zm3.08-6.78A1.62,1.62,0,1,1,200,31.33,1.63,1.63,0,0,1,201.61,29.71Z"/><path class="cls-3" d="M212.3,35.68a4.46,4.46,0,0,1,1.82-.3c2.78,0,3.92,1.77,3.92,4,0,1.44-.08,3.72-.08,6.12,0,.91.2,1,1.57,1l.13.13v.63l-.13.13c-.68,0-1.34-.13-2-.13s-1.34.08-2,.13l-.28-.23a43.25,43.25,0,0,0,.23-5.56c0-2.5,0-4.27-2.4-4.27-1.37,0-2.93.83-2.93,1.9v3.87c0,2.07,0,2.93.2,3.16s.68.25,1.64.25l.08.08v.73l-.08.08c-1,0-2-.13-3.19-.13-1,0-2.07.08-3,.13l-.08-.08V46.6l.08-.08c1,0,1.52-.1,1.64-.25s.2-1.09.2-3.16v-3c0-2.2,0-2.6-.25-2.73a8.4,8.4,0,0,0-1.59-.1l-.08-.08v-.73l.08-.08a14.09,14.09,0,0,0,4.15-1l.25.18c-.05.58-.1,1.29-.1,2.15Z"/><path class="cls-3" d="M233.84,36.49c-.25.4-.51.81-.73,1.21-.3,0-.66,0-1,0s-.76,0-1.06,0a5,5,0,0,1,.33,1.69c0,2.73-3.06,4.35-5.23,4.35l-.81,0c-.86.71-1,1-1,1.29,0,.53.3.63,2,.63,1,0,2-.08,3.19-.08,2.2,0,3.62,1.16,3.62,3.14,0,3.09-3.06,5.34-7,5.34-4.22,0-5.33-2.3-5.33-3.59a2.76,2.76,0,0,1,.73-1.85c.66-.33,1.26-.68,1.85-1-.94-.3-1.29-.73-1.29-1.47a1.89,1.89,0,0,1,.38-1.19c.63-.46,1.24-.91,1.79-1.39a3.39,3.39,0,0,1-2.91-3.31,4.09,4.09,0,0,1,1.67-3.49,7.49,7.49,0,0,1,4-1.34,4.66,4.66,0,0,1,3.11,1c1.42,0,2.55,0,3.49-.1Zm-6.17,11a18.33,18.33,0,0,0-3,.18c-1.19.71-1.62,1.34-1.62,2.4,0,2,1.57,3,3.36,3,2.65,0,4.5-1.29,4.5-3.44C230.93,48.3,230,47.54,227.67,47.54Zm-1.39-11.1a2.36,2.36,0,0,0-2.43,2.5c0,2.81,1.42,3.84,2.43,3.84a2.33,2.33,0,0,0,2.58-2.53C228.86,38,227.75,36.44,226.28,36.44Z"/></svg>